<svg xmlns="http://www.w3.org/2000/svg" xmlns:xlink="http://www.w3.org/1999/xlink" xmlns:lucid="lucid" width="1471" height="1331"><g transform="translate(-66 -62)" lucid:page-tab-id="laTIacZFQ41y"><path d="M0 0h1601.33v1437.33H0z" fill="#fff"/><path d="M120 1377H88c-4.42 0-8-3.57-8-8v-232h40z" fill="#ff8f80"/><path d="M120 1377h1393.33c4.42 0 8-3.57 8-8v-232H120z" fill="none"/><path d="M120 1137H80V523.7h40z" fill="#58d6d7"/><path d="M120 1137h1401.33V523.7H120z" fill="none"/><path d="M80 1137h1441.33" stroke="#b2b2b2" stroke-width="2" fill="none"/><path d="M80 523.68V88c0-4.42 3.58-8 8-8h32v443.68z" fill="#4397ff"/><path d="M120 80h1393.33c4.42 0 8 3.58 8 8v435.68H120z" fill="none"/><path d="M80 523.68h1441.33M120 1377V80M120 1377H88c-4.42 0-8-3.57-8-8v-232m0 0V523.7m0 0V88c0-4.42 3.58-8 8-8h32m0 0h1393.33c4.42 0 8 3.58 8 8v435.68m0 613.33V523.7M120 1377h1393.33c4.42 0 8-3.57 8-8v-232" stroke="#b2b2b2" stroke-width="2" fill="none"/><use xlink:href="#a" transform="matrix(6.123233995736766e-17,-1,1,6.123233995736766e-17,80.00000000000028,523.6794867287823) translate(202.075 23.6)"/><use xlink:href="#b" transform="matrix(6.123233995736766e-17,-1,1,6.123233995736766e-17,80.00000000000026,1137.0128200621155) translate(270.1 23.6)"/><use xlink:href="#c" transform="matrix(6.123233995736766e-17,-1,1,6.123233995736766e-17,80.00000000000024,1377.0128200621157) translate(95.57499999999999 23.6)"/><path d="M288 257c17.67 0 32 17.92 32 40 0 22.1-14.33 40-32 40h-96c-17.67 0-32-17.9-32-40 0-22.08 14.33-40 32-40z" stroke="#fff" fill="#b2b2b2"/><use xlink:href="#d" transform="matrix(1,0,0,1,165.00000000000034,262.01282006211545) translate(5.549999999999997 38.6)"/><use xlink:href="#e" transform="matrix(1,0,0,1,165.00000000000034,262.01282006211545) translate(66.45 38.6)"/><use xlink:href="#f" transform="matrix(1,0,0,1,165.00000000000034,262.01282006211545) translate(105.45 38.6)"/><path d="M540 805c0-4.4 3.58-8 8-8h124c4.42 0 8 3.6 8 8v81.42c0 4.42-3.58 8-8 8H548c-4.42 0-8-3.58-8-8z" stroke="#fff" fill="#58d6d7"/><use xlink:href="#g" transform="matrix(1,0,0,1,545.0000000000005,802.0128200621153) translate(43.525 47.6)"/><path d="M1137 805c0-4.4 3.58-8 8-8h124c4.42 0 8 3.6 8 8v81.42c0 4.42-3.58 8-8 8h-124c-4.42 0-8-3.58-8-8z" stroke="#fff" fill="#58d6d7"/><use xlink:href="#h" transform="matrix(1,0,0,1,1142,802.0128200621153) translate(46.5 47.6)"/><path d="M540 385c0-4.4 3.58-8 8-8h124c4.42 0 8 3.6 8 8v81.42c0 4.42-3.58 8-8 8H548c-4.42 0-8-3.58-8-8z" stroke="#fff" fill="#4397ff"/><use xlink:href="#i" transform="matrix(1,0,0,1,545.0000000000005,382.01282006211545) translate(28.049999999999997 47.6)"/><use xlink:href="#j" transform="matrix(1,0,0,1,545.0000000000005,382.01282006211545) translate(61.05 47.6)"/><path d="M611 778h-2V657.33h2zm0-163.88h-2v-138.2h2z"/><path d="M611 475.95h-2v-1.03h2zM610 793.28L605.36 779h9.28z"/><path d="M610 796.5l-6-18.5h12zm-3.26-16.5l3.26 10.04 3.26-10.03z"/><use xlink:href="#k" transform="matrix(1,0,0,1,493.15000000000066,614.1172725621153) translate(0 14.4)"/><use xlink:href="#l" transform="matrix(1,0,0,1,493.15000000000066,614.1172725621153) translate(10.95 14.4)"/><use xlink:href="#m" transform="matrix(1,0,0,1,493.15000000000066,614.1172725621153) translate(31.9 14.4)"/><use xlink:href="#n" transform="matrix(1,0,0,1,493.15000000000066,614.1172725621153) translate(86.85 14.4)"/><use xlink:href="#o" transform="matrix(1,0,0,1,493.15000000000066,614.1172725621153) translate(151.75 14.4)"/><use xlink:href="#p" transform="matrix(1,0,0,1,493.15000000000066,614.1172725621153) translate(184.75 14.4)"/><use xlink:href="#q" transform="matrix(1,0,0,1,493.15000000000066,614.1172725621153) translate(0 36)"/><use xlink:href="#r" transform="matrix(1,0,0,1,493.15000000000066,614.1172725621153) translate(75 36)"/><use xlink:href="#s" transform="matrix(1,0,0,1,493.15000000000066,614.1172725621153) translate(109.95 36)"/><use xlink:href="#t" transform="matrix(1,0,0,1,493.15000000000066,614.1172725621153) translate(130.9 36)"/><path d="M1205.2 795.5h-2v-53.18h2zm0-74.78h-2v-60.45h2zM1205.2 796.5h-2v-1h2zM1208.83 659.27h-9.27l4.64-14.27z"/><path d="M1210.2 660.27h-12.02l6.02-18.5zm-9.26-2h6.5l-3.24-10.03z"/><use xlink:href="#u" transform="matrix(1,0,0,1,1089.845321484057,720.7168750705805) translate(0 14.4)"/><use xlink:href="#v" transform="matrix(1,0,0,1,1089.845321484057,720.7168750705805) translate(26.9 14.4)"/><use xlink:href="#w" transform="matrix(1,0,0,1,1089.845321484057,720.7168750705805) translate(81.85 14.4)"/><use xlink:href="#x" transform="matrix(1,0,0,1,1089.845321484057,720.7168750705805) translate(146.75 14.4)"/><use xlink:href="#y" transform="matrix(1,0,0,1,1089.845321484057,720.7168750705805) translate(179.75 14.4)"/><path d="M540 125c0-4.4 3.58-8 8-8h124c4.42 0 8 3.6 8 8v81.42c0 4.42-3.58 8-8 8H548c-4.42 0-8-3.58-8-8z" stroke="#fff" fill="#4397ff"/><use xlink:href="#h" transform="matrix(1,0,0,1,545.0000000000005,122.01282006211545) translate(46.5 47.6)"/><path d="M240 238v-72.28h281" stroke="#000" stroke-width="2" fill="none"/><path d="M240 253.28L235.36 239h9.28zM536.26 165.72L522 170.35v-9.27z" stroke="#000" stroke-width="2"/><use xlink:href="#z" transform="matrix(1,0,0,1,309.4083333333337,140.11727258669058) translate(0 14.4)"/><use xlink:href="#A" transform="matrix(1,0,0,1,309.4083333333337,140.11727258669058) translate(26.9 14.4)"/><use xlink:href="#B" transform="matrix(1,0,0,1,309.4083333333337,140.11727258669058) translate(66.85 14.4)"/><use xlink:href="#C" transform="matrix(1,0,0,1,309.4083333333337,140.11727258669058) translate(105.85 14.4)"/><path d="M1203.06 413.86h-2V166.72H1028.8v-2h174.26zM699 166.72v-2h187.04v2zM698 170.35l-14.26-4.63 14.26-4.64z"/><path d="M699 171.73l-18.5-6 18.5-6.02zm-12.03-6l10.03 3.25v-6.52zM1202.06 429.12l-4.64-14.26h9.27z"/><path d="M1202.06 432.36l-6.02-18.5h12.03zm-3.26-16.5l3.26 10.03 3.25-10.04z"/><g><use xlink:href="#D" transform="matrix(1,0,0,1,886.0384631698984,144.11727258669058) translate(0 14.4)"/><use xlink:href="#E" transform="matrix(1,0,0,1,886.0384631698984,144.11727258669058) translate(26.9 14.4)"/><use xlink:href="#F" transform="matrix(1,0,0,1,886.0384631698984,144.11727258669058) translate(73.8 14.4)"/><use xlink:href="#p" transform="matrix(1,0,0,1,886.0384631698984,144.11727258669058) translate(93.8 14.4)"/><use xlink:href="#G" transform="matrix(1,0,0,1,886.0384631698984,144.11727258669058) translate(0 36)"/><use xlink:href="#r" transform="matrix(1,0,0,1,886.0384631698984,144.11727258669058) translate(35 36)"/><use xlink:href="#s" transform="matrix(1,0,0,1,886.0384631698984,144.11727258669058) translate(69.95 36)"/><use xlink:href="#t" transform="matrix(1,0,0,1,886.0384631698984,144.11727258669058) translate(90.9 36)"/></g><path d="M540 1225c0-4.4 3.58-8 8-8h124c4.42 0 8 3.6 8 8v81.42c0 4.42-3.58 8-8 8H548c-4.42 0-8-3.58-8-8z" stroke="#fff" fill="#ff8f80"/><g><use xlink:href="#H" transform="matrix(1,0,0,1,545.0000000000005,1222.0128200621152) translate(28.049999999999997 47.6)"/><use xlink:href="#I" transform="matrix(1,0,0,1,545.0000000000005,1222.0128200621152) translate(61.05 47.6)"/></g><path d="M611 1198h-2v-120.68h2zm0-163.88h-2v-120.7h2zM610 1213.28l-4.64-14.27h9.28z"/><path d="M610 1216.5l-6-18.5h12zm-3.26-16.5l3.26 10.04 3.26-10.03zM614.64 912.42h-9.28l4.64-14.26z"/><path d="M616 913.42h-12l6-18.5zm-9.26-2h6.52L610 901.4z"/><g><use xlink:href="#J" transform="matrix(1,0,0,1,505.5500000000007,1034.1172725621154) translate(0 14.4)"/><use xlink:href="#o" transform="matrix(1,0,0,1,505.5500000000007,1034.1172725621154) translate(26.9 14.4)"/><use xlink:href="#K" transform="matrix(1,0,0,1,505.5500000000007,1034.1172725621154) translate(59.9 14.4)"/><use xlink:href="#L" transform="matrix(1,0,0,1,505.5500000000007,1034.1172725621154) translate(0 36)"/><use xlink:href="#r" transform="matrix(1,0,0,1,505.5500000000007,1034.1172725621154) translate(60 36)"/><use xlink:href="#s" transform="matrix(1,0,0,1,505.5500000000007,1034.1172725621154) translate(94.95 36)"/><use xlink:href="#t" transform="matrix(1,0,0,1,505.5500000000007,1034.1172725621154) translate(115.9 36)"/></g><path d="M835.95 633.84l-15.67 11.2-15.75 12.32-15.95 13.57-16.28 15.1-16.78 16.9-17.46 19.12-18.37 21.9-19.6 25.46-10.6 15.04-1.64-1.15 10.62-15.08 19.65-25.52 18.42-21.97 17.52-19.2 16.84-16.95 16.36-15.14 16-13.63 15.83-12.35 15.72-11.27 1.9-1.23h3.65zm285.6-82.53l-26.52.92-29.28 2.23-26.35 3.13-24.03 3.88L993.2 566l-20.65 5.15-19.42 5.7-18.44 6.28-17.63 6.83-16.98 7.42-16.5 8.03-7.27 3.95h-4.2l10.56-5.72 16.55-8.07 17.06-7.45 17.7-6.85 18.52-6.3 19.5-5.73 20.75-5.17 22.24-4.55 24.12-3.9 26.43-3.14 29.37-2.24 26.55-.9zM691.9 787.36l-12.02 9 4.44-14.35z"/><path d="M693.6 787.33L678 799l5.75-18.6zm-11.85 6.37l8.44-6.32-5.34-3.76zM1136.76 550.05l-14.18 4.88-.16-9.27z"/><path d="M1140 550l-18.4 6.32-.2-12.02zm-16.45 3.53l9.98-3.42-10.08-3.08z"/><g><use xlink:href="#M" transform="matrix(1,0,0,1,773.5085162706644,609.3456763167775) translate(0 14.4)"/><use xlink:href="#N" transform="matrix(1,0,0,1,773.5085162706644,609.3456763167775) translate(26.9 14.4)"/><use xlink:href="#O" transform="matrix(1,0,0,1,773.5085162706644,609.3456763167775) translate(94.9 14.4)"/><use xlink:href="#y" transform="matrix(1,0,0,1,773.5085162706644,609.3456763167775) translate(114.9 14.4)"/></g><g stroke="#000" stroke-opacity="0" stroke-width="1.67"><path d="M1274 451.05h-.13c-.94-10.48-30.56-18.87-66.87-18.87-36.3 0-65.93 8.4-66.87 18.87h-.13v171.3c0 10.7 30.02 19.5 67 19.5 36.98 0 67-8.8 67-19.5z" fill="#fff"/><path d="M1259.13 463.84c-12.33 4.4-31.1 7.13-52.13 7.13-21.04 0-39.8-2.73-52.13-7.13v158.5c0 7.97 23.32 14.26 52.13 14.26 28.8 0 52.13-6.3 52.13-14.25z" fill="#4d82b8"/><path d="M1259.13 451.68c0-7.97-23.32-14.26-52.13-14.26-28.8 0-52.13 6.3-52.13 14.26 0 7.76 23.32 14.05 52.13 14.05 28.8 0 52.13-6.3 52.13-14.05z" fill="#4d82b8"/></g><path d="M1147.75 532.18h118.5v40h-118.5z" stroke="#000" stroke-opacity="0" stroke-width="2" fill="#fff" fill-opacity="0"/><g><use xlink:href="#P" transform="matrix(1,0,0,1,1152.75,537.1794867287821) translate(30.025 18.6)"/></g><path d="M681.5 845.72H1118" stroke="#000" stroke-width="2" fill="none"/><path d="M681.53 846.72h-1.03v-2h1.03z"/><path d="M1133.26 845.72l-14.26 4.63v-9.27z" stroke="#000" stroke-width="2"/><path d="M240 338.5v87.22h281" stroke="#000" stroke-width="2" fill="none"/><path d="M241 338.54h-2v-1.03h2z"/><path d="M536.26 425.72L522 430.35v-9.27z" stroke="#000" stroke-width="2"/><g><use xlink:href="#Q" transform="matrix(1,0,0,1,268.4906056182648,400.11727258669055) translate(0 14.4)"/><use xlink:href="#v" transform="matrix(1,0,0,1,268.4906056182648,400.11727258669055) translate(26.9 14.4)"/><use xlink:href="#w" transform="matrix(1,0,0,1,268.4906056182648,400.11727258669055) translate(81.85 14.4)"/><use xlink:href="#x" transform="matrix(1,0,0,1,268.4906056182648,400.11727258669055) translate(146.75 14.4)"/><use xlink:href="#y" transform="matrix(1,0,0,1,268.4906056182648,400.11727258669055) translate(179.75 14.4)"/></g><path d="M786.65 817h243.7v31.6h-243.7z" fill="#fff" fill-opacity="0"/><g><use xlink:href="#R" transform="matrix(1,0,0,1,791.6500000000004,822.0128200621156) translate(0 14.4)"/><use xlink:href="#S" transform="matrix(1,0,0,1,791.6500000000004,822.0128200621156) translate(10.95 14.4)"/><use xlink:href="#v" transform="matrix(1,0,0,1,791.6500000000004,822.0128200621156) translate(31.9 14.4)"/><use xlink:href="#w" transform="matrix(1,0,0,1,791.6500000000004,822.0128200621156) translate(86.85 14.4)"/><use xlink:href="#x" transform="matrix(1,0,0,1,791.6500000000004,822.0128200621156) translate(151.75 14.4)"/><use xlink:href="#y" transform="matrix(1,0,0,1,791.6500000000004,822.0128200621156) translate(184.75 14.4)"/></g><defs><path fill="#fff" d="M168 0l21-106H79L58 0H6l48-248h52l-19 99h110l19-99h50L218 0h-50" id="T"/><path fill="#fff" d="M124-194c51 0 84 22 84 74C207-44 167 4 94 4 43 4 11-23 11-74c0-74 41-120 113-120zM99-30c46 0 58-42 58-86 0-27-11-44-37-44-44 0-55 40-57 84-1 27 10 45 36 46" id="U"/><path fill="#fff" d="M144-137c-1-29-70-35-71-2 16 41 103 10 103 80C176 9 79 16 32-9 18-17 9-31 4-48l44-6c3 32 80 36 82 1-15-42-103-11-103-82 0-77 157-79 161-8" id="V"/><path fill="#fff" d="M72-63c-8 23 5 39 32 30L98-1C54 14 12-6 23-64l18-93H15l7-33h28l24-45h31l-8 45h35l-6 33H90" id="W"/><g id="a"><use transform="matrix(0.05,0,0,0.05,0,0)" xlink:href="#T"/><use transform="matrix(0.05,0,0,0.05,12.950000000000001,0)" xlink:href="#U"/><use transform="matrix(0.05,0,0,0.05,23.900000000000002,0)" xlink:href="#V"/><use transform="matrix(0.05,0,0,0.05,33.900000000000006,0)" xlink:href="#W"/></g><path fill="#fff" d="M76-105c-23 59 45 89 88 55 12-10 18-24 22-45l30-153h51C238-143 259 4 118 4 48 4 11-39 25-112l26-136h52" id="X"/><path fill="#fff" d="M156-122c2-23-7-37-28-37-47 0-58 44-58 89 0 24 12 40 36 40 43 0 47-49 50-92zM-8 75l50-265h48c0 10-3 24-3 30 22-50 127-45 121 29-6 73-21 135-92 135-29 0-46-14-55-35L41 75H-8" id="Y"/><path fill="#fff" d="M114-194c63-2 87 48 72 110H63c-3 28 1 55 31 54 21-1 32-13 37-29l44 13C160-14 137 4 91 4 41 4 11-22 11-73c0-71 33-119 103-121zm30 77c14-47-50-61-67-22-3 6-6 13-8 22h75" id="Z"/><path fill="#fff" d="M84-151c13-25 34-51 72-40l-8 41C67-170 71-64 56 0H6l36-190h47" id="aa"/><path fill="#fff" d="M255-194c90 0 29 129 24 194h-49l25-136c-7-39-53-14-60 9-12 38-18 85-28 127h-49l25-136c2-29-39-23-50-7C69-108 68-47 56 0H6l36-190h48c-1 10-6 24-4 32 12-20 27-36 57-36s46 15 50 41c14-21 29-41 62-41" id="ab"/><path fill="#fff" d="M132-28C118-9 101 4 69 4 30 4 10-23 10-62c0-70 24-129 92-132 31-1 47 14 56 35l19-102h49L179 0h-49zM62-69c0 22 7 39 29 39 45-2 54-45 57-90 2-27-10-40-33-40-44 0-53 48-53 91" id="ac"/><g id="b"><use transform="matrix(0.05,0,0,0.05,0,0)" xlink:href="#X"/><use transform="matrix(0.05,0,0,0.05,12.950000000000001,0)" xlink:href="#Y"/><use transform="matrix(0.05,0,0,0.05,23.900000000000002,0)" xlink:href="#W"/><use transform="matrix(0.05,0,0,0.05,29.85,0)" xlink:href="#Z"/><use transform="matrix(0.05,0,0,0.05,39.85,0)" xlink:href="#aa"/><use transform="matrix(0.05,0,0,0.05,46.85,0)" xlink:href="#ab"/><use transform="matrix(0.05,0,0,0.05,62.85,0)" xlink:href="#ac"/></g><path fill="#333" d="M161-211c-63 0-91 46-91 110 0 39 17 65 58 64 38-1 60-20 74-45l40 20C220-23 184 0 125 4 9 13-10-144 57-208c33-50 166-62 196-1 4 8 9 18 11 27l-48 12c-6-24-25-41-55-41" id="ad"/><path fill="#333" d="M6 0l51-261h49L55 0H6" id="ae"/><path fill="#333" d="M50-224l7-37h49l-7 37H50zM6 0l37-190h49L55 0H6" id="af"/><path fill="#333" d="M114-194c63-2 87 48 72 110H63c-3 28 1 55 31 54 21-1 32-13 37-29l44 13C160-14 137 4 91 4 41 4 11-22 11-73c0-71 33-119 103-121zm30 77c14-47-50-61-67-22-3 6-6 13-8 22h75" id="ag"/><path fill="#333" d="M151-194c95 0 34 128 28 194h-49l25-134c0-29-45-25-59-9C67-111 69-48 56 0H6l36-190h47l-4 32c15-20 33-36 66-36" id="ah"/><path fill="#333" d="M72-63c-8 23 5 39 32 30L98-1C54 14 12-6 23-64l18-93H15l7-33h28l24-45h31l-8 45h35l-6 33H90" id="ai"/><g id="c"><use transform="matrix(0.05,0,0,0.05,0,0)" xlink:href="#ad"/><use transform="matrix(0.05,0,0,0.05,12.950000000000001,0)" xlink:href="#ae"/><use transform="matrix(0.05,0,0,0.05,17.950000000000003,0)" xlink:href="#af"/><use transform="matrix(0.05,0,0,0.05,22.950000000000003,0)" xlink:href="#ag"/><use transform="matrix(0.05,0,0,0.05,32.95,0)" xlink:href="#ah"/><use transform="matrix(0.05,0,0,0.05,43.900000000000006,0)" xlink:href="#ai"/></g><path fill="#fff" d="M67 3c-93-2-31-127-26-193h32L48-50c-3 39 53 32 70 12 30-34 30-101 43-152h32L157 0h-30c1-10 6-24 4-33-14 20-29 37-64 36" id="aj"/><path fill="#fff" d="M67-162c32-53 139-36 121 50C175-51 163 2 97 4 68 4 52-11 42-31 38 6 28 39 22 75H-9l50-265h29c-1 10 0 20-3 28zm89 36c0-26-10-43-35-43-54 0-67 50-69 103-1 29 14 45 42 46 53 0 62-58 62-106" id="ak"/><path fill="#fff" d="M51-54c-9 22 5 41 31 30L79-1C43 14 10-4 19-52l22-115H19l5-23h22l19-43h21l-9 43h35l-4 23H73" id="al"/><path fill="#fff" d="M111-194c62-3 86 47 72 106H45c-7 38 6 69 45 68 27-1 43-14 53-32l24 11C152-15 129 4 87 4 38 3 12-23 12-71c0-70 32-119 99-123zm44 81c14-66-71-72-95-28-4 8-8 17-11 28h106" id="am"/><path fill="#fff" d="M66-151c12-25 30-51 66-40l-6 26C45-176 58-65 38 0H6l36-190h30" id="an"/><path fill="#fff" d="M248-111c6-24 9-61-24-58-72 9-57 108-77 169h-31l26-142c3-37-50-30-64-10C52-115 50-51 37 0H6l36-190h30c-1 10-6 24-4 32 13-43 101-52 105 5 13-22 29-41 61-41 90 0 28 129 23 194h-31" id="ao"/><g id="d"><use transform="matrix(0.05,0,0,0.05,0,0)" xlink:href="#aj"/><use transform="matrix(0.05,0,0,0.05,10,0)" xlink:href="#ak"/><use transform="matrix(0.05,0,0,0.05,20,0)" xlink:href="#al"/><use transform="matrix(0.05,0,0,0.05,25,0)" xlink:href="#am"/><use transform="matrix(0.05,0,0,0.05,35,0)" xlink:href="#an"/><use transform="matrix(0.05,0,0,0.05,40.95,0)" xlink:href="#ao"/></g><path fill="#fff" d="M67-158c15-20 31-36 64-36 94 0 33 127 27 194h-32l25-140c3-38-53-32-70-12C52-117 51-51 37 0H6l51-261h31" id="ap"/><path fill="#fff" d="M30-147c31-64 166-65 159 27C183-49 158 1 86 4 9 8 1-88 30-147zM88-20c53 0 68-48 68-100 0-31-11-51-44-50-52 1-68 46-68 97 0 32 13 53 44 53" id="aq"/><path fill="#fff" d="M55-144c13 50 104 24 104 88C159 21 15 23 1-39l26-10c6 40 102 42 102-4-13-50-104-23-104-87 0-71 143-71 148-8l-29 4c-5-35-85-37-89 0" id="ar"/><g id="e"><use transform="matrix(0.05,0,0,0.05,0,0)" xlink:href="#ap"/><use transform="matrix(0.05,0,0,0.05,10,0)" xlink:href="#aq"/><use transform="matrix(0.05,0,0,0.05,20,0)" xlink:href="#ar"/><use transform="matrix(0.05,0,0,0.05,29,0)" xlink:href="#al"/></g><path fill="#fff" d="M68-162c25-46 127-43 121 31C183-60 169 1 98 4 69 5 53-11 43-31L36 0H5l52-261h31zm88 36c2-27-9-43-34-43-55 0-70 51-70 103 0 29 15 45 43 46 52 0 58-58 61-106" id="as"/><path fill="#fff" d="M165-48c-4 18 1 34 23 27l-3 20c-29 8-62 0-52-35h-2C116-14 99 4 63 4 30 4 8-16 8-49c0-68 71-67 138-67 10-26 0-56-31-54-26 1-42 9-47 31l-32-5c8-67 160-71 144 15-5 28-9 54-15 81zM42-50c3 52 80 24 89-6 7-12 7-24 11-38-47 1-103-4-100 44" id="at"/><g id="f"><use transform="matrix(0.05,0,0,0.05,0,0)" xlink:href="#as"/><use transform="matrix(0.05,0,0,0.05,10,0)" xlink:href="#at"/><use transform="matrix(0.05,0,0,0.05,20,0)" xlink:href="#ar"/><use transform="matrix(0.05,0,0,0.05,29,0)" xlink:href="#ap"/></g><path fill="#fff" d="M124 0L87-78 21 0h-35l86-98-46-92h33l34 74 61-74h37l-83 92 50 98h-34" id="au"/><path fill="#fff" d="M198-190L69 30C53 58 25 83-20 72c4-11-1-27 19-22 33-1 43-29 59-52L20-190h32L79-34l84-156h35" id="av"/><g id="g"><use transform="matrix(0.05,0,0,0.05,0,0)" xlink:href="#ak"/><use transform="matrix(0.05,0,0,0.05,10,0)" xlink:href="#an"/><use transform="matrix(0.05,0,0,0.05,15.949999999999998,0)" xlink:href="#aq"/><use transform="matrix(0.05,0,0,0.05,25.950000000000003,0)" xlink:href="#au"/><use transform="matrix(0.05,0,0,0.05,34.95,0)" xlink:href="#av"/></g><path fill="#fff" d="M133-28C103 26-5 8 13-77c13-62 24-115 90-117 29-1 46 15 56 35l19-102h32L160 0h-30zM45-64c-2 27 10 43 35 43 54-1 69-50 69-103 0-29-15-46-42-46-53-1-58 58-62 106" id="aw"/><g id="h"><use transform="matrix(0.05,0,0,0.05,0,0)" xlink:href="#ar"/><use transform="matrix(0.05,0,0,0.05,9,0)" xlink:href="#ar"/><use transform="matrix(0.05,0,0,0.05,18,0)" xlink:href="#ap"/><use transform="matrix(0.05,0,0,0.05,28,0)" xlink:href="#aw"/></g><g id="i"><use transform="matrix(0.05,0,0,0.05,0,0)" xlink:href="#ar"/><use transform="matrix(0.05,0,0,0.05,9,0)" xlink:href="#ar"/><use transform="matrix(0.05,0,0,0.05,18,0)" xlink:href="#ap"/></g><path fill="#fff" d="M44-68c0 29 11 47 38 47 30 0 42-19 51-41l28 9C148-21 126 4 82 4 31 4 10-29 12-85c3-77 74-140 146-93 12 8 15 23 18 40l-31 5c-1-22-13-36-36-36-52 0-65 49-65 101" id="ax"/><path fill="#fff" d="M6 0l50-261h32L37 0H6" id="ay"/><path fill="#fff" d="M50-231l6-30h32l-6 30H50zM6 0l37-190h31L37 0H6" id="az"/><path fill="#fff" d="M67-158c22-48 132-52 116 29L158 0h-32l25-140c3-38-53-32-70-12C52-117 51-52 38 0H6l36-190h30" id="aA"/><g id="j"><use transform="matrix(0.05,0,0,0.05,0,0)" xlink:href="#ax"/><use transform="matrix(0.05,0,0,0.05,9,0)" xlink:href="#ay"/><use transform="matrix(0.05,0,0,0.05,12.949999999999998,0)" xlink:href="#az"/><use transform="matrix(0.05,0,0,0.05,16.9,0)" xlink:href="#am"/><use transform="matrix(0.05,0,0,0.05,26.899999999999995,0)" xlink:href="#aA"/><use transform="matrix(0.05,0,0,0.05,36.9,0)" xlink:href="#al"/></g><path d="M87 75C49 33 22-17 22-94c0-76 28-126 65-167h31c-38 41-64 92-64 168S80 34 118 75H87" id="aB"/><use transform="matrix(0.05,0,0,0.05,0,0)" xlink:href="#aB" id="k"/><path d="M101-251c82-7 93 87 43 132L82-64C71-53 59-42 53-27h129V0H18c2-99 128-94 128-182 0-28-16-43-45-43s-46 15-49 41l-32-3c6-41 34-60 81-64" id="aC"/><path d="M33-261c38 41 65 92 65 168S71 34 33 75H2C39 34 66-17 66-93S39-220 2-261h31" id="aD"/><g id="l"><use transform="matrix(0.05,0,0,0.05,0,0)" xlink:href="#aC"/><use transform="matrix(0.05,0,0,0.05,10,0)" xlink:href="#aD"/></g><path d="M96-169c-40 0-48 33-48 73s9 75 48 75c24 0 41-14 43-38l32 2c-6 37-31 61-74 61-59 0-76-41-82-99-10-93 101-131 147-64 4 7 5 14 7 22l-32 3c-4-21-16-35-41-35" id="aE"/><path d="M114-163C36-179 61-72 57 0H25l-1-190h30c1 12-1 29 2 39 6-27 23-49 58-41v29" id="aF"/><path d="M100-194c63 0 86 42 84 106H49c0 40 14 67 53 68 26 1 43-12 49-29l28 8c-11 28-37 45-77 45C44 4 14-33 15-96c1-61 26-98 85-98zm52 81c6-60-76-77-97-28-3 7-6 17-6 28h103" id="aG"/><path d="M141-36C126-15 110 5 73 4 37 3 15-17 15-53c-1-64 63-63 125-63 3-35-9-54-41-54-24 1-41 7-42 31l-33-3c5-37 33-52 76-52 45 0 72 20 72 64v82c-1 20 7 32 28 27v20c-31 9-61-2-59-35zM48-53c0 20 12 33 32 33 41-3 63-29 60-74-43 2-92-5-92 41" id="aH"/><path d="M59-47c-2 24 18 29 38 22v24C64 9 27 4 27-40v-127H5v-23h24l9-43h21v43h35v23H59v120" id="aI"/><g id="m"><use transform="matrix(0.05,0,0,0.05,0,0)" xlink:href="#aE"/><use transform="matrix(0.05,0,0,0.05,9,0)" xlink:href="#aF"/><use transform="matrix(0.05,0,0,0.05,14.949999999999998,0)" xlink:href="#aG"/><use transform="matrix(0.05,0,0,0.05,24.95,0)" xlink:href="#aH"/><use transform="matrix(0.05,0,0,0.05,34.95,0)" xlink:href="#aI"/><use transform="matrix(0.05,0,0,0.05,39.95,0)" xlink:href="#aG"/></g><path d="M108 0H70L1-190h34L89-25l56-165h34" id="aJ"/><path d="M135-143c-3-34-86-38-87 0 15 53 115 12 119 90S17 21 10-45l28-5c4 36 97 45 98 0-10-56-113-15-118-90-4-57 82-63 122-42 12 7 21 19 24 35" id="aK"/><g id="n"><use transform="matrix(0.05,0,0,0.05,0,0)" xlink:href="#aF"/><use transform="matrix(0.05,0,0,0.05,5.95,0)" xlink:href="#aG"/><use transform="matrix(0.05,0,0,0.05,15.949999999999998,0)" xlink:href="#aJ"/><use transform="matrix(0.05,0,0,0.05,24.95,0)" xlink:href="#aG"/><use transform="matrix(0.05,0,0,0.05,34.95,0)" xlink:href="#aF"/><use transform="matrix(0.05,0,0,0.05,40.900000000000006,0)" xlink:href="#aK"/><use transform="matrix(0.05,0,0,0.05,49.900000000000006,0)" xlink:href="#aG"/></g><path d="M106-169C34-169 62-67 57 0H25v-261h32l-1 103c12-21 28-36 61-36 89 0 53 116 60 194h-32v-121c2-32-8-49-39-48" id="aL"/><g id="o"><use transform="matrix(0.05,0,0,0.05,0,0)" xlink:href="#aK"/><use transform="matrix(0.05,0,0,0.05,9,0)" xlink:href="#aK"/><use transform="matrix(0.05,0,0,0.05,18,0)" xlink:href="#aL"/></g><path d="M84 4C-5 8 30-112 23-190h32v120c0 31 7 50 39 49 72-2 45-101 50-169h31l1 190h-30c-1-10 1-25-2-33-11 22-28 36-60 37" id="aM"/><path d="M117-194c89-4 53 116 60 194h-32v-121c0-31-8-49-39-48C34-167 62-67 57 0H25l-1-190h30c1 10-1 24 2 32 11-22 29-35 61-36" id="aN"/><path d="M24 0v-261h32V0H24" id="aO"/><g id="p"><use transform="matrix(0.05,0,0,0.05,0,0)" xlink:href="#aI"/><use transform="matrix(0.05,0,0,0.05,5,0)" xlink:href="#aM"/><use transform="matrix(0.05,0,0,0.05,15,0)" xlink:href="#aN"/><use transform="matrix(0.05,0,0,0.05,25,0)" xlink:href="#aN"/><use transform="matrix(0.05,0,0,0.05,35,0)" xlink:href="#aG"/><use transform="matrix(0.05,0,0,0.05,45,0)" xlink:href="#aO"/></g><path d="M115-194c55 1 70 41 70 98S169 2 115 4C84 4 66-9 55-30l1 105H24l-1-265h31l2 30c10-21 28-34 59-34zm-8 174c40 0 45-34 45-75s-6-73-45-74c-42 0-51 32-51 76 0 43 10 73 51 73" id="aP"/><g id="r"><use transform="matrix(0.05,0,0,0.05,0,0)" xlink:href="#aB"/><use transform="matrix(0.05,0,0,0.05,5.95,0)" xlink:href="#aI"/><use transform="matrix(0.05,0,0,0.05,10.95,0)" xlink:href="#aE"/><use transform="matrix(0.05,0,0,0.05,19.95,0)" xlink:href="#aP"/></g><path d="M100-194c62-1 85 37 85 99 1 63-27 99-86 99S16-35 15-95c0-66 28-99 85-99zM99-20c44 1 53-31 53-75 0-43-8-75-51-75s-53 32-53 75 10 74 51 75" id="aQ"/><g id="s"><use transform="matrix(0.05,0,0,0.05,0,0)" xlink:href="#aQ"/><use transform="matrix(0.05,0,0,0.05,10,0)" xlink:href="#aF"/></g><path d="M206 0h-36l-40-164L89 0H53L-1-190h32L70-26l43-164h34l41 164 42-164h31" id="aR"/><g id="t"><use transform="matrix(0.05,0,0,0.05,0,0)" xlink:href="#aR"/><use transform="matrix(0.05,0,0,0.05,12.950000000000001,0)" xlink:href="#aK"/><use transform="matrix(0.05,0,0,0.05,21.950000000000003,0)" xlink:href="#aD"/></g><path d="M155-56V0h-30v-56H8v-25l114-167h33v167h35v25h-35zm-30-156c-27 46-58 90-88 131h88v-131" id="aS"/><g id="u"><use transform="matrix(0.05,0,0,0.05,0,0)" xlink:href="#aB"/><use transform="matrix(0.05,0,0,0.05,5.95,0)" xlink:href="#aS"/><use transform="matrix(0.05,0,0,0.05,15.949999999999998,0)" xlink:href="#aD"/></g><g id="v"><use transform="matrix(0.05,0,0,0.05,0,0)" xlink:href="#aE"/><use transform="matrix(0.05,0,0,0.05,9,0)" xlink:href="#aF"/><use transform="matrix(0.05,0,0,0.05,14.949999999999998,0)" xlink:href="#aG"/><use transform="matrix(0.05,0,0,0.05,24.95,0)" xlink:href="#aH"/><use transform="matrix(0.05,0,0,0.05,34.95,0)" xlink:href="#aI"/><use transform="matrix(0.05,0,0,0.05,39.95,0)" xlink:href="#aG"/></g><g id="w"><use transform="matrix(0.05,0,0,0.05,0,0)" xlink:href="#aF"/><use transform="matrix(0.05,0,0,0.05,5.95,0)" xlink:href="#aG"/><use transform="matrix(0.05,0,0,0.05,15.949999999999998,0)" xlink:href="#aJ"/><use transform="matrix(0.05,0,0,0.05,24.95,0)" xlink:href="#aG"/><use transform="matrix(0.05,0,0,0.05,34.95,0)" xlink:href="#aF"/><use transform="matrix(0.05,0,0,0.05,40.900000000000006,0)" xlink:href="#aK"/><use transform="matrix(0.05,0,0,0.05,49.900000000000006,0)" xlink:href="#aG"/></g><g id="x"><use transform="matrix(0.05,0,0,0.05,0,0)" xlink:href="#aK"/><use transform="matrix(0.05,0,0,0.05,9,0)" xlink:href="#aK"/><use transform="matrix(0.05,0,0,0.05,18,0)" xlink:href="#aL"/></g><g id="y"><use transform="matrix(0.05,0,0,0.05,0,0)" xlink:href="#aI"/><use transform="matrix(0.05,0,0,0.05,5,0)" xlink:href="#aM"/><use transform="matrix(0.05,0,0,0.05,15,0)" xlink:href="#aN"/><use transform="matrix(0.05,0,0,0.05,25,0)" xlink:href="#aN"/><use transform="matrix(0.05,0,0,0.05,35,0)" xlink:href="#aG"/><use transform="matrix(0.05,0,0,0.05,45,0)" xlink:href="#aO"/></g><path d="M54-142c48-35 137-8 131 61C196 18 31 33 14-55l32-4c7 23 22 37 52 37 35-1 51-22 54-58 4-55-73-65-99-34H22l8-134h141v27H59" id="aT"/><g id="z"><use transform="matrix(0.05,0,0,0.05,0,0)" xlink:href="#aB"/><use transform="matrix(0.05,0,0,0.05,5.95,0)" xlink:href="#aT"/><use transform="matrix(0.05,0,0,0.05,15.949999999999998,0)" xlink:href="#aD"/></g><g id="A"><use transform="matrix(0.05,0,0,0.05,0,0)" xlink:href="#aK"/><use transform="matrix(0.05,0,0,0.05,9,0)" xlink:href="#aI"/><use transform="matrix(0.05,0,0,0.05,14,0)" xlink:href="#aH"/><use transform="matrix(0.05,0,0,0.05,24,0)" xlink:href="#aF"/><use transform="matrix(0.05,0,0,0.05,29.950000000000003,0)" xlink:href="#aI"/></g><g id="B"><use transform="matrix(0.05,0,0,0.05,0,0)" xlink:href="#aL"/><use transform="matrix(0.05,0,0,0.05,10,0)" xlink:href="#aQ"/><use transform="matrix(0.05,0,0,0.05,20,0)" xlink:href="#aK"/><use transform="matrix(0.05,0,0,0.05,29,0)" xlink:href="#aI"/></g><path d="M85-194c31 0 48 13 60 33l-1-100h32l1 261h-30c-2-10 0-23-3-31C134-8 116 4 85 4 32 4 16-35 15-94c0-66 23-100 70-100zm9 24c-40 0-46 34-46 75 0 40 6 74 45 74 42 0 51-32 51-76 0-42-9-74-50-73" id="aU"/><g id="C"><use transform="matrix(0.05,0,0,0.05,0,0)" xlink:href="#aK"/><use transform="matrix(0.05,0,0,0.05,9,0)" xlink:href="#aK"/><use transform="matrix(0.05,0,0,0.05,18,0)" xlink:href="#aL"/><use transform="matrix(0.05,0,0,0.05,28,0)" xlink:href="#aU"/></g><path d="M110-160c48 1 74 30 74 79 0 53-28 85-80 85-65 0-83-55-86-122-5-90 50-162 133-122 14 7 22 21 27 39l-31 6c-5-40-67-38-82-6-9 19-15 44-15 74 11-20 30-34 60-33zm-7 138c34 0 49-23 49-58s-16-56-50-56c-29 0-50 16-49 49 1 36 15 65 50 65" id="aV"/><g id="D"><use transform="matrix(0.05,0,0,0.05,0,0)" xlink:href="#aB"/><use transform="matrix(0.05,0,0,0.05,5.95,0)" xlink:href="#aV"/><use transform="matrix(0.05,0,0,0.05,15.949999999999998,0)" xlink:href="#aD"/></g><path d="M24-231v-30h32v30H24zM24 0v-190h32V0H24" id="aW"/><g id="E"><use transform="matrix(0.05,0,0,0.05,0,0)" xlink:href="#aO"/><use transform="matrix(0.05,0,0,0.05,3.95,0)" xlink:href="#aW"/><use transform="matrix(0.05,0,0,0.05,7.9,0)" xlink:href="#aK"/><use transform="matrix(0.05,0,0,0.05,16.9,0)" xlink:href="#aI"/><use transform="matrix(0.05,0,0,0.05,21.9,0)" xlink:href="#aG"/><use transform="matrix(0.05,0,0,0.05,31.899999999999995,0)" xlink:href="#aN"/></g><g id="F"><use transform="matrix(0.05,0,0,0.05,0,0)" xlink:href="#aI"/><use transform="matrix(0.05,0,0,0.05,5,0)" xlink:href="#aQ"/></g><path d="M55-144c13 50 104 24 104 88C159 21 15 23 1-39l26-10c6 40 102 42 102-4-13-50-104-23-104-87 0-71 143-71 148-8l-29 4c-5-35-85-37-89 0" id="aX"/><path d="M67-158c15-20 31-36 64-36 94 0 33 127 27 194h-32l25-140c3-38-53-32-70-12C52-117 51-51 37 0H6l51-261h31" id="aY"/><g id="H"><use transform="matrix(0.05,0,0,0.05,0,0)" xlink:href="#aX"/><use transform="matrix(0.05,0,0,0.05,9,0)" xlink:href="#aX"/><use transform="matrix(0.05,0,0,0.05,18,0)" xlink:href="#aY"/></g><path d="M44-68c0 29 11 47 38 47 30 0 42-19 51-41l28 9C148-21 126 4 82 4 31 4 10-29 12-85c3-77 74-140 146-93 12 8 15 23 18 40l-31 5c-1-22-13-36-36-36-52 0-65 49-65 101" id="aZ"/><path d="M6 0l50-261h32L37 0H6" id="ba"/><path d="M50-231l6-30h32l-6 30H50zM6 0l37-190h31L37 0H6" id="bb"/><path d="M111-194c62-3 86 47 72 106H45c-7 38 6 69 45 68 27-1 43-14 53-32l24 11C152-15 129 4 87 4 38 3 12-23 12-71c0-70 32-119 99-123zm44 81c14-66-71-72-95-28-4 8-8 17-11 28h106" id="bc"/><path d="M67-158c22-48 132-52 116 29L158 0h-32l25-140c3-38-53-32-70-12C52-117 51-52 38 0H6l36-190h30" id="bd"/><path d="M51-54c-9 22 5 41 31 30L79-1C43 14 10-4 19-52l22-115H19l5-23h22l19-43h21l-9 43h35l-4 23H73" id="be"/><g id="I"><use transform="matrix(0.05,0,0,0.05,0,0)" xlink:href="#aZ"/><use transform="matrix(0.05,0,0,0.05,9,0)" xlink:href="#ba"/><use transform="matrix(0.05,0,0,0.05,12.949999999999998,0)" xlink:href="#bb"/><use transform="matrix(0.05,0,0,0.05,16.9,0)" xlink:href="#bc"/><use transform="matrix(0.05,0,0,0.05,26.899999999999995,0)" xlink:href="#bd"/><use transform="matrix(0.05,0,0,0.05,36.9,0)" xlink:href="#be"/></g><path d="M64 0c3-98 48-159 88-221H18v-27h164v26C143-157 98-101 97 0H64" id="bf"/><g id="J"><use transform="matrix(0.05,0,0,0.05,0,0)" xlink:href="#aB"/><use transform="matrix(0.05,0,0,0.05,5.95,0)" xlink:href="#bf"/><use transform="matrix(0.05,0,0,0.05,15.949999999999998,0)" xlink:href="#aD"/></g><path d="M115-194c53 0 69 39 70 98 0 66-23 100-70 100C84 3 66-7 56-30L54 0H23l1-261h32v101c10-23 28-34 59-34zm-8 174c40 0 45-34 45-75 0-40-5-75-45-74-42 0-51 32-51 76 0 43 10 73 51 73" id="bg"/><path d="M198-261c85 0 136 45 136 128 0 61-22 111-78 115-29 2-39-18-37-44-12 23-32 44-66 44-41 0-58-28-58-68 0-60 30-105 88-108 29-1 43 15 54 32l7-28h28c-9 45-23 84-27 134-1 11 6 17 14 16 39-4 51-48 51-92 0-69-42-107-112-107-93 0-145 59-145 153C53-15 94 26 168 27c43 0 78-13 106-28l9 19c-30 18-67 32-115 32C79 50 28-1 28-86c0-107 62-175 170-175zM158-41c46 0 70-43 70-90 0-26-17-40-43-40-44 0-59 41-61 85-1 26 9 45 34 45" id="bh"/><path d="M210-169c-67 3-38 105-44 169h-31v-121c0-29-5-50-35-48C34-165 62-65 56 0H25l-1-190h30c1 10-1 24 2 32 10-44 99-50 107 0 11-21 27-35 58-36 85-2 47 119 55 194h-31v-121c0-29-5-49-35-48" id="bi"/><path d="M16-82v-28h88v28H16" id="bj"/><g id="K"><use transform="matrix(0.05,0,0,0.05,0,0)" xlink:href="#aH"/><use transform="matrix(0.05,0,0,0.05,10,0)" xlink:href="#bg"/><use transform="matrix(0.05,0,0,0.05,20,0)" xlink:href="#aE"/><use transform="matrix(0.05,0,0,0.05,29,0)" xlink:href="#aU"/><use transform="matrix(0.05,0,0,0.05,39,0)" xlink:href="#bh"/><use transform="matrix(0.05,0,0,0.05,57.25,0)" xlink:href="#aM"/><use transform="matrix(0.05,0,0,0.05,67.25,0)" xlink:href="#aP"/><use transform="matrix(0.05,0,0,0.05,77.25,0)" xlink:href="#aI"/><use transform="matrix(0.05,0,0,0.05,82.25,0)" xlink:href="#aG"/><use transform="matrix(0.05,0,0,0.05,92.25,0)" xlink:href="#aF"/><use transform="matrix(0.05,0,0,0.05,98.2,0)" xlink:href="#bi"/><use transform="matrix(0.05,0,0,0.05,113.15,0)" xlink:href="#aU"/><use transform="matrix(0.05,0,0,0.05,123.15,0)" xlink:href="#bj"/><use transform="matrix(0.05,0,0,0.05,129.1,0)" xlink:href="#aM"/><use transform="matrix(0.05,0,0,0.05,139.1,0)" xlink:href="#aF"/><use transform="matrix(0.05,0,0,0.05,145.04999999999998,0)" xlink:href="#aO"/></g><path d="M134-131c28 9 52 24 51 62-1 50-34 73-85 73S17-19 16-69c0-36 21-54 49-61-75-25-45-126 34-121 46 3 78 18 79 63 0 33-17 51-44 57zm-34-11c31 1 46-15 46-44 0-28-17-43-47-42-29 0-46 13-45 42 1 28 16 44 46 44zm1 122c35 0 51-18 51-52 0-30-18-46-53-46-33 0-51 17-51 47 0 34 19 51 53 51" id="bk"/><g id="M"><use transform="matrix(0.05,0,0,0.05,0,0)" xlink:href="#aB"/><use transform="matrix(0.05,0,0,0.05,5.95,0)" xlink:href="#bk"/><use transform="matrix(0.05,0,0,0.05,15.949999999999998,0)" xlink:href="#aD"/></g><g id="N"><use transform="matrix(0.05,0,0,0.05,0,0)" xlink:href="#aE"/><use transform="matrix(0.05,0,0,0.05,9,0)" xlink:href="#aQ"/><use transform="matrix(0.05,0,0,0.05,19,0)" xlink:href="#aN"/><use transform="matrix(0.05,0,0,0.05,29,0)" xlink:href="#aN"/><use transform="matrix(0.05,0,0,0.05,39,0)" xlink:href="#aG"/><use transform="matrix(0.05,0,0,0.05,49,0)" xlink:href="#aE"/><use transform="matrix(0.05,0,0,0.05,58,0)" xlink:href="#aI"/></g><g id="O"><use transform="matrix(0.05,0,0,0.05,0,0)" xlink:href="#aI"/><use transform="matrix(0.05,0,0,0.05,5,0)" xlink:href="#aQ"/></g><g id="P"><use transform="matrix(0.05,0,0,0.05,0,0)" xlink:href="#al"/><use transform="matrix(0.05,0,0,0.05,5,0)" xlink:href="#aj"/><use transform="matrix(0.05,0,0,0.05,15,0)" xlink:href="#aA"/><use transform="matrix(0.05,0,0,0.05,25,0)" xlink:href="#aA"/><use transform="matrix(0.05,0,0,0.05,35,0)" xlink:href="#am"/><use transform="matrix(0.05,0,0,0.05,45,0)" xlink:href="#ay"/></g><path d="M27 0v-27h64v-190l-56 39v-29l58-41h29v221h61V0H27" id="bl"/><g id="Q"><use transform="matrix(0.05,0,0,0.05,0,0)" xlink:href="#aB"/><use transform="matrix(0.05,0,0,0.05,5.95,0)" xlink:href="#bl"/><use transform="matrix(0.05,0,0,0.05,15.949999999999998,0)" xlink:href="#aD"/></g><use transform="matrix(0.05,0,0,0.05,0,0)" xlink:href="#aB" id="R"/><path d="M126-127c33 6 58 20 58 59 0 88-139 92-164 29-3-8-5-16-6-25l32-3c6 27 21 44 54 44 32 0 52-15 52-46 0-38-36-46-79-43v-28c39 1 72-4 72-42 0-27-17-43-46-43-28 0-47 15-49 41l-32-3c6-42 35-63 81-64 48-1 79 21 79 65 0 36-21 52-52 59" id="bm"/><g id="S"><use transform="matrix(0.05,0,0,0.05,0,0)" xlink:href="#bm"/><use transform="matrix(0.05,0,0,0.05,10,0)" xlink:href="#aD"/></g></defs></g></svg>